<mxfile host="app.diagrams.net" modified="2022-09-02T11:28:06.745Z" agent="5.0 (Windows NT 10.0; Win64; x64) AppleWebKit/537.36 (KHTML, like Gecko) Chrome/104.0.5112.102 Safari/537.36 Edg/104.0.1293.70" etag="lJljQpAu7OSu804dOzh5" version="20.2.8" type="github">
  <diagram id="nfITtEkA5MPA7v5qoeS2" name="Страница 1">
    <mxGraphModel dx="2504" dy="1519" grid="1" gridSize="12" guides="1" tooltips="1" connect="1" arrows="1" fold="1" page="1" pageScale="1" pageWidth="1169" pageHeight="827" background="none" math="0" shadow="0">
      <root>
        <mxCell id="0" />
        <mxCell id="1" parent="0" />
        <mxCell id="U3E1a8gzFkDNhNUDbVYr-1" value="" style="rounded=0;whiteSpace=wrap;html=1;" vertex="1" parent="1">
          <mxGeometry x="-1169" y="-827" width="1169" height="95" as="geometry" />
        </mxCell>
        <mxCell id="U3E1a8gzFkDNhNUDbVYr-2" value="" style="rounded=0;whiteSpace=wrap;html=1;" vertex="1" parent="1">
          <mxGeometry x="-1169" y="-144" width="1169" height="144" as="geometry" />
        </mxCell>
        <mxCell id="U3E1a8gzFkDNhNUDbVYr-3" value="Логотип" style="rounded=1;whiteSpace=wrap;html=1;" vertex="1" parent="1">
          <mxGeometry x="-1140" y="-809.5" width="120" height="60" as="geometry" />
        </mxCell>
        <mxCell id="U3E1a8gzFkDNhNUDbVYr-4" value="Войти" style="rounded=1;whiteSpace=wrap;html=1;" vertex="1" parent="1">
          <mxGeometry x="-996" y="-800.25" width="60" height="41.5" as="geometry" />
        </mxCell>
        <mxCell id="U3E1a8gzFkDNhNUDbVYr-5" value="&lt;font style=&quot;font-size: 10px;&quot;&gt;Регистрация&lt;/font&gt;" style="rounded=1;whiteSpace=wrap;html=1;" vertex="1" parent="1">
          <mxGeometry x="-924" y="-800.25" width="60" height="41.5" as="geometry" />
        </mxCell>
        <mxCell id="U3E1a8gzFkDNhNUDbVYr-6" value="&lt;span style=&quot;font-size:11.0pt;line-height:&lt;br/&gt;115%;font-family:&amp;quot;Calibri&amp;quot;,&amp;quot;sans-serif&amp;quot;;mso-ascii-theme-font:minor-latin;&lt;br/&gt;mso-fareast-font-family:&amp;quot;Times New Roman&amp;quot;;mso-fareast-theme-font:minor-fareast;&lt;br/&gt;mso-hansi-theme-font:minor-latin;mso-bidi-font-family:&amp;quot;Times New Roman&amp;quot;;&lt;br/&gt;mso-bidi-theme-font:minor-bidi;mso-ansi-language:KZ;mso-fareast-language:RU;&lt;br/&gt;mso-bidi-language:AR-SA&quot; lang=&quot;KZ&quot;&gt;доставка&lt;/span&gt;" style="rounded=1;whiteSpace=wrap;html=1;" vertex="1" parent="1">
          <mxGeometry x="-456" y="-800.25" width="60" height="41.5" as="geometry" />
        </mxCell>
        <mxCell id="U3E1a8gzFkDNhNUDbVYr-7" value="&lt;span style=&quot;font-size:11.0pt;line-height:&lt;br/&gt;115%;font-family:&amp;quot;Calibri&amp;quot;,&amp;quot;sans-serif&amp;quot;;mso-ascii-theme-font:minor-latin;&lt;br/&gt;mso-fareast-font-family:&amp;quot;Times New Roman&amp;quot;;mso-fareast-theme-font:minor-fareast;&lt;br/&gt;mso-hansi-theme-font:minor-latin;mso-bidi-font-family:&amp;quot;Times New Roman&amp;quot;;&lt;br/&gt;mso-bidi-theme-font:minor-bidi;mso-ansi-language:KZ;mso-fareast-language:RU;&lt;br/&gt;mso-bidi-language:AR-SA&quot; lang=&quot;KZ&quot;&gt;заказать&lt;/span&gt;" style="rounded=1;whiteSpace=wrap;html=1;" vertex="1" parent="1">
          <mxGeometry x="-516" y="-800.25" width="60" height="41.5" as="geometry" />
        </mxCell>
        <mxCell id="U3E1a8gzFkDNhNUDbVYr-8" value="&lt;span style=&quot;font-size:11.0pt;line-height:&lt;br/&gt;115%;font-family:&amp;quot;Calibri&amp;quot;,&amp;quot;sans-serif&amp;quot;;mso-ascii-theme-font:minor-latin;&lt;br/&gt;mso-fareast-font-family:&amp;quot;Times New Roman&amp;quot;;mso-fareast-theme-font:minor-fareast;&lt;br/&gt;mso-hansi-theme-font:minor-latin;mso-bidi-font-family:&amp;quot;Times New Roman&amp;quot;;&lt;br/&gt;mso-bidi-theme-font:minor-bidi;mso-ansi-language:KZ;mso-fareast-language:RU;&lt;br/&gt;mso-bidi-language:AR-SA&quot; lang=&quot;KZ&quot;&gt;каталог&lt;/span&gt;" style="rounded=1;whiteSpace=wrap;html=1;" vertex="1" parent="1">
          <mxGeometry x="-576" y="-800.25" width="60" height="41.5" as="geometry" />
        </mxCell>
        <mxCell id="U3E1a8gzFkDNhNUDbVYr-9" value="&lt;font style=&quot;font-size: 10px;&quot;&gt;калькулятор&lt;/font&gt;" style="rounded=1;whiteSpace=wrap;html=1;" vertex="1" parent="1">
          <mxGeometry x="-192" y="-800.25" width="60" height="41.5" as="geometry" />
        </mxCell>
        <mxCell id="U3E1a8gzFkDNhNUDbVYr-10" value="корзина" style="rounded=1;whiteSpace=wrap;html=1;" vertex="1" parent="1">
          <mxGeometry x="-120" y="-800.25" width="60" height="41.5" as="geometry" />
        </mxCell>
        <mxCell id="U3E1a8gzFkDNhNUDbVYr-11" value="&lt;font style=&quot;font-size: 29px;&quot;&gt;Главная страница&lt;/font&gt;" style="ellipse;whiteSpace=wrap;html=1;fontSize=10;" vertex="1" parent="1">
          <mxGeometry x="-787" y="-708" width="405" height="240" as="geometry" />
        </mxCell>
        <mxCell id="U3E1a8gzFkDNhNUDbVYr-12" value="" style="rounded=1;whiteSpace=wrap;html=1;fontSize=29;" vertex="1" parent="1">
          <mxGeometry x="-1131" y="-432" width="1092" height="204" as="geometry" />
        </mxCell>
        <mxCell id="U3E1a8gzFkDNhNUDbVYr-13" value="" style="rounded=1;whiteSpace=wrap;html=1;fontSize=29;" vertex="1" parent="1">
          <mxGeometry x="-840" y="-396" width="120" height="60" as="geometry" />
        </mxCell>
        <mxCell id="U3E1a8gzFkDNhNUDbVYr-14" value="" style="rounded=1;whiteSpace=wrap;html=1;fontSize=29;" vertex="1" parent="1">
          <mxGeometry x="-972" y="-396" width="120" height="60" as="geometry" />
        </mxCell>
        <mxCell id="U3E1a8gzFkDNhNUDbVYr-15" value="" style="rounded=1;whiteSpace=wrap;html=1;fontSize=29;" vertex="1" parent="1">
          <mxGeometry x="-1104" y="-396" width="120" height="60" as="geometry" />
        </mxCell>
        <mxCell id="U3E1a8gzFkDNhNUDbVYr-16" value="" style="rounded=1;whiteSpace=wrap;html=1;fontSize=29;" vertex="1" parent="1">
          <mxGeometry x="-576" y="-396" width="120" height="60" as="geometry" />
        </mxCell>
        <mxCell id="U3E1a8gzFkDNhNUDbVYr-17" value="" style="rounded=1;whiteSpace=wrap;html=1;fontSize=29;" vertex="1" parent="1">
          <mxGeometry x="-444" y="-396" width="120" height="60" as="geometry" />
        </mxCell>
        <mxCell id="U3E1a8gzFkDNhNUDbVYr-18" value="" style="rounded=1;whiteSpace=wrap;html=1;fontSize=29;" vertex="1" parent="1">
          <mxGeometry x="-312" y="-396" width="120" height="60" as="geometry" />
        </mxCell>
        <mxCell id="U3E1a8gzFkDNhNUDbVYr-20" value="" style="rounded=1;whiteSpace=wrap;html=1;fontSize=29;" vertex="1" parent="1">
          <mxGeometry x="-705" y="-396" width="120" height="60" as="geometry" />
        </mxCell>
        <mxCell id="U3E1a8gzFkDNhNUDbVYr-21" value="" style="rounded=1;whiteSpace=wrap;html=1;fontSize=29;" vertex="1" parent="1">
          <mxGeometry x="-180" y="-396" width="120" height="60" as="geometry" />
        </mxCell>
        <mxCell id="U3E1a8gzFkDNhNUDbVYr-22" value="" style="rounded=1;whiteSpace=wrap;html=1;fontSize=29;" vertex="1" parent="1">
          <mxGeometry x="-840" y="-324" width="120" height="60" as="geometry" />
        </mxCell>
        <mxCell id="U3E1a8gzFkDNhNUDbVYr-23" value="" style="rounded=1;whiteSpace=wrap;html=1;fontSize=29;" vertex="1" parent="1">
          <mxGeometry x="-972" y="-324" width="120" height="60" as="geometry" />
        </mxCell>
        <mxCell id="U3E1a8gzFkDNhNUDbVYr-24" value="" style="rounded=1;whiteSpace=wrap;html=1;fontSize=29;" vertex="1" parent="1">
          <mxGeometry x="-1104" y="-324" width="120" height="60" as="geometry" />
        </mxCell>
        <mxCell id="U3E1a8gzFkDNhNUDbVYr-25" value="" style="rounded=1;whiteSpace=wrap;html=1;fontSize=29;" vertex="1" parent="1">
          <mxGeometry x="-576" y="-324" width="120" height="60" as="geometry" />
        </mxCell>
        <mxCell id="U3E1a8gzFkDNhNUDbVYr-26" value="" style="rounded=1;whiteSpace=wrap;html=1;fontSize=29;" vertex="1" parent="1">
          <mxGeometry x="-444" y="-324" width="120" height="60" as="geometry" />
        </mxCell>
        <mxCell id="U3E1a8gzFkDNhNUDbVYr-27" value="" style="rounded=1;whiteSpace=wrap;html=1;fontSize=29;" vertex="1" parent="1">
          <mxGeometry x="-312" y="-324" width="120" height="60" as="geometry" />
        </mxCell>
        <mxCell id="U3E1a8gzFkDNhNUDbVYr-28" value="" style="rounded=1;whiteSpace=wrap;html=1;fontSize=29;" vertex="1" parent="1">
          <mxGeometry x="-705" y="-324" width="120" height="60" as="geometry" />
        </mxCell>
        <mxCell id="U3E1a8gzFkDNhNUDbVYr-29" value="" style="rounded=1;whiteSpace=wrap;html=1;fontSize=29;" vertex="1" parent="1">
          <mxGeometry x="-180" y="-324" width="120" height="60" as="geometry" />
        </mxCell>
        <mxCell id="U3E1a8gzFkDNhNUDbVYr-30" value="каталог" style="text;html=1;align=center;verticalAlign=middle;resizable=0;points=[];autosize=1;strokeColor=none;fillColor=none;fontSize=29;" vertex="1" parent="1">
          <mxGeometry x="-648" y="-437" width="132" height="48" as="geometry" />
        </mxCell>
        <mxCell id="U3E1a8gzFkDNhNUDbVYr-31" value="Text" style="text;html=1;strokeColor=none;fillColor=none;align=center;verticalAlign=middle;whiteSpace=wrap;rounded=0;fontSize=29;" vertex="1" parent="1">
          <mxGeometry x="-1080" y="-120" width="60" height="30" as="geometry" />
        </mxCell>
        <mxCell id="U3E1a8gzFkDNhNUDbVYr-32" value="Text" style="text;html=1;strokeColor=none;fillColor=none;align=center;verticalAlign=middle;whiteSpace=wrap;rounded=0;fontSize=29;" vertex="1" parent="1">
          <mxGeometry x="-942" y="-120" width="60" height="30" as="geometry" />
        </mxCell>
        <mxCell id="U3E1a8gzFkDNhNUDbVYr-33" value="Text" style="text;html=1;strokeColor=none;fillColor=none;align=center;verticalAlign=middle;whiteSpace=wrap;rounded=0;fontSize=29;" vertex="1" parent="1">
          <mxGeometry x="-804" y="-120" width="60" height="30" as="geometry" />
        </mxCell>
        <mxCell id="U3E1a8gzFkDNhNUDbVYr-36" value="&lt;font style=&quot;font-size: 15px;&quot;&gt;Text&lt;/font&gt;" style="text;html=1;strokeColor=none;fillColor=none;align=center;verticalAlign=middle;whiteSpace=wrap;rounded=0;fontSize=29;" vertex="1" parent="1">
          <mxGeometry x="-1074" y="-90" width="60" height="30" as="geometry" />
        </mxCell>
        <mxCell id="U3E1a8gzFkDNhNUDbVYr-37" value="&lt;font style=&quot;font-size: 15px;&quot;&gt;Text&lt;/font&gt;" style="text;html=1;strokeColor=none;fillColor=none;align=center;verticalAlign=middle;whiteSpace=wrap;rounded=0;fontSize=29;" vertex="1" parent="1">
          <mxGeometry x="-1074" y="-66" width="60" height="30" as="geometry" />
        </mxCell>
        <mxCell id="U3E1a8gzFkDNhNUDbVYr-38" value="&lt;font style=&quot;font-size: 15px;&quot;&gt;Text&lt;/font&gt;" style="text;html=1;strokeColor=none;fillColor=none;align=center;verticalAlign=middle;whiteSpace=wrap;rounded=0;fontSize=29;" vertex="1" parent="1">
          <mxGeometry x="-1074" y="-36" width="60" height="30" as="geometry" />
        </mxCell>
        <mxCell id="U3E1a8gzFkDNhNUDbVYr-45" value="&lt;font style=&quot;font-size: 15px;&quot;&gt;Text&lt;/font&gt;" style="text;html=1;strokeColor=none;fillColor=none;align=center;verticalAlign=middle;whiteSpace=wrap;rounded=0;fontSize=29;" vertex="1" parent="1">
          <mxGeometry x="-942" y="-90" width="60" height="30" as="geometry" />
        </mxCell>
        <mxCell id="U3E1a8gzFkDNhNUDbVYr-46" value="&lt;font style=&quot;font-size: 15px;&quot;&gt;Text&lt;/font&gt;" style="text;html=1;strokeColor=none;fillColor=none;align=center;verticalAlign=middle;whiteSpace=wrap;rounded=0;fontSize=29;" vertex="1" parent="1">
          <mxGeometry x="-942" y="-66" width="60" height="30" as="geometry" />
        </mxCell>
        <mxCell id="U3E1a8gzFkDNhNUDbVYr-47" value="&lt;font style=&quot;font-size: 15px;&quot;&gt;Text&lt;/font&gt;" style="text;html=1;strokeColor=none;fillColor=none;align=center;verticalAlign=middle;whiteSpace=wrap;rounded=0;fontSize=29;" vertex="1" parent="1">
          <mxGeometry x="-942" y="-36" width="60" height="30" as="geometry" />
        </mxCell>
        <mxCell id="U3E1a8gzFkDNhNUDbVYr-48" value="&lt;font style=&quot;font-size: 15px;&quot;&gt;Text&lt;/font&gt;" style="text;html=1;strokeColor=none;fillColor=none;align=center;verticalAlign=middle;whiteSpace=wrap;rounded=0;fontSize=29;" vertex="1" parent="1">
          <mxGeometry x="-804" y="-90" width="60" height="30" as="geometry" />
        </mxCell>
        <mxCell id="U3E1a8gzFkDNhNUDbVYr-49" value="&lt;font style=&quot;font-size: 15px;&quot;&gt;Text&lt;/font&gt;" style="text;html=1;strokeColor=none;fillColor=none;align=center;verticalAlign=middle;whiteSpace=wrap;rounded=0;fontSize=29;" vertex="1" parent="1">
          <mxGeometry x="-804" y="-66" width="60" height="30" as="geometry" />
        </mxCell>
        <mxCell id="U3E1a8gzFkDNhNUDbVYr-50" value="&lt;font style=&quot;font-size: 15px;&quot;&gt;Text&lt;/font&gt;" style="text;html=1;strokeColor=none;fillColor=none;align=center;verticalAlign=middle;whiteSpace=wrap;rounded=0;fontSize=29;" vertex="1" parent="1">
          <mxGeometry x="-804" y="-36" width="60" height="30" as="geometry" />
        </mxCell>
        <mxCell id="U3E1a8gzFkDNhNUDbVYr-51" value="&lt;font style=&quot;font-size: 9px;&quot;&gt;Соцсети&lt;/font&gt;" style="ellipse;whiteSpace=wrap;html=1;aspect=fixed;fontSize=15;" vertex="1" parent="1">
          <mxGeometry x="-432" y="-97" width="44" height="44" as="geometry" />
        </mxCell>
        <mxCell id="U3E1a8gzFkDNhNUDbVYr-52" value="&lt;span style=&quot;font-size: 9px;&quot;&gt;Соцсети&lt;/span&gt;" style="ellipse;whiteSpace=wrap;html=1;aspect=fixed;fontSize=15;" vertex="1" parent="1">
          <mxGeometry x="-356" y="-97" width="44" height="44" as="geometry" />
        </mxCell>
        <mxCell id="U3E1a8gzFkDNhNUDbVYr-53" value="&lt;span style=&quot;font-size: 9px;&quot;&gt;Соцсети&lt;/span&gt;" style="ellipse;whiteSpace=wrap;html=1;aspect=fixed;fontSize=15;" vertex="1" parent="1">
          <mxGeometry x="-274" y="-97" width="44" height="44" as="geometry" />
        </mxCell>
      </root>
    </mxGraphModel>
  </diagram>
</mxfile>
